<svg width="390" height="75" fill="none" xmlns="http://www.w3.org/2000/svg"><path d="M188.89 50.781c-59.875 0-138.994 0-188.89 8.532V75h390v-9.632C347.911 60.505 248.765 50.78 188.89 50.78z" fill="#F9F9F9"/><path fill-rule="evenodd" clip-rule="evenodd" d="M0 37.82h16c17 0 49 0 82 3.206 32 3.846 65 11.538 97 8.974 33-2.564 65-14.744 98-25 32-10.256 65-17.308 81-21.154L390 0v75H0V37.82z" fill="#F9F9F9" fill-opacity=".7"/><path fill-rule="evenodd" clip-rule="evenodd" d="m0 30.37 16 6.375c17 5.738 49 18.49 82 17.215 32-1.275 65-15.94 97-24.866 33-8.926 65-11.476 98-8.926 32 2.55 65 10.201 81 14.027l16 3.825V75H0V30.37z" fill="#F9F9F9" fill-opacity=".7"/><path fill-rule="evenodd" clip-rule="evenodd" d="m0 15.332 13-1.27c13-.634 39-3.173 65 0 26 3.81 52 13.965 78 24.756 26 11.426 52 24.122 78 29.834C260 75 286 75 312 67.382c26-6.982 52-22.216 65-29.198l13-7.618V75H0V15.332z" fill="#F9F9F9" fill-opacity=".7"/></svg>