<svg width="16" height="17" viewBox="0 0 16 17" fill="none" xmlns="http://www.w3.org/2000/svg">
<path d="M12.6876 4.5C11.9526 6.2925 10.5276 6.78 8.75005 6.9375C7.64005 10.185 8.87005 13.7775 11.1876 16.125C15.6651 14.01 16.4901 7.6875 12.6876 4.5Z" fill="white"/>
<path d="M9.58255 5.4975C10.4076 5.1525 11.1201 4.53 11.5626 3.75C11.0826 3.48 10.5501 3.285 10.0176 3.1275L11.0601 1.8525C11.2551 1.6125 11.2251 1.26 10.9851 1.0575C10.7451 0.855001 10.3926 0.892501 10.1901 1.1325L8.77255 2.865C8.24755 2.7975 7.74505 2.7975 7.22005 2.865L5.80255 1.1325C5.60755 0.892501 5.25505 0.855001 5.00755 1.0575C4.76755 1.2525 4.73005 1.6125 4.93255 1.8525L5.97505 3.1275C5.44255 3.2775 4.91005 3.4725 4.43005 3.75C5.44255 5.52 7.69255 6.2775 9.57505 5.4975H9.58255Z" fill="white"/>
<path d="M4.81255 6.375C3.86755 5.715 3.46255 4.86 3.31255 4.5C3.11755 4.665 0.417549 7.0125 0.875049 10.6875C1.33255 14.4075 4.60255 16.02 4.81255 16.125C7.13005 13.7775 8.36005 10.185 7.25005 6.9375C6.86005 6.9075 5.65255 6.96 4.81255 6.375Z" fill="white"/>
</svg>
