<svg width="15" height="18" viewBox="0 0 15 18" fill="none" xmlns="http://www.w3.org/2000/svg">
<path d="M13.915 8.77747C13.285 5.65747 10.5925 3.28747 7.32248 3.15997C7.60748 2.43247 7.59998 1.55497 7.28498 0.714966C6.91748 1.53997 6.37748 2.28247 5.69498 2.87497C5.40248 3.12247 5.07248 3.40747 4.71248 3.54997C4.35248 3.69997 3.99999 3.83497 3.66249 4.02247C2.34249 4.74997 1.27748 5.90497 0.654984 7.28497C0.294984 8.07997 0.0849854 8.94247 0.0474854 9.81247C0.819985 9.57247 1.61498 9.37747 2.40998 9.23497C3.12248 9.10747 3.83499 9.05497 4.54749 8.94997C5.86749 8.75497 6.89498 7.99747 7.61498 6.89497C9.14498 7.38247 10.2025 8.84497 10.2025 10.45C10.2025 11.875 9.35498 13.21 8.06498 13.825C7.30748 14.1775 6.45248 14.2675 5.63498 14.0875C5.99498 14.8975 6.56498 15.6025 7.28498 16.12C7.65248 16.3825 8.04998 16.5925 8.47748 16.75C8.66498 16.8175 8.88248 16.915 9.08498 16.885C9.31748 16.8475 9.57248 16.72 9.78248 16.63C11.575 15.865 13 14.35 13.645 12.5125C14.065 11.3275 14.155 10.0225 13.9075 8.79247L13.915 8.77747ZM2.64998 6.43747C3.07748 6.00997 3.66248 5.82997 4.21748 5.90497C4.37498 7.10497 3.32498 8.16247 2.11748 8.00497C2.04248 7.44997 2.22248 6.86497 2.64998 6.43747ZM6.32498 17.1325C3.29498 16.825 0.842485 14.59 0.204985 11.6725C1.70498 10.87 3.46748 10.405 5.18498 10.465C4.59998 11.3575 4.29998 12.4525 4.38998 13.5175C4.48748 14.9875 5.22998 16.285 6.33248 17.125L6.32498 17.1325Z" fill="white"/>
</svg>
