<svg width="16" height="13" viewBox="0 0 16 13" fill="none" xmlns="http://www.w3.org/2000/svg">
<path d="M0.297395 9.21004L1.23489 11.4975C1.56489 12.2925 2.7499 12.06 2.7499 11.1975V4.55254C2.7499 3.69004 1.56489 3.45754 1.23489 4.25254L0.297395 6.54004C-0.055105 7.40254 -0.055105 8.36254 0.297395 9.21754V9.21004Z" fill="white"/>
<path d="M15.0351 11.1075V1.26753C15.0351 0.720034 14.5926 0.285034 14.0526 0.285034H13.5876C13.0476 0.285034 12.6051 0.727534 12.6051 1.26753V4.47003C12.6051 4.64253 12.4626 4.78503 12.2901 4.78503C12.1176 4.78503 11.9751 4.64253 11.9751 4.47003V1.26753C11.9751 0.720034 11.5326 0.285034 10.9926 0.285034H10.5275C9.98755 0.285034 9.54505 0.727534 9.54505 1.26753V4.47003C9.54505 4.64253 9.40255 4.78503 9.23005 4.78503C9.05755 4.78503 8.91505 4.64253 8.91505 4.47003V1.26753C8.91505 0.720034 8.47256 0.285034 7.93256 0.285034H7.46755C6.92755 0.285034 6.48505 0.727534 6.48505 1.26753V4.47003C6.48505 4.64253 6.34255 4.78503 6.17005 4.78503C5.99755 4.78503 5.85505 4.64253 5.85505 4.47003V1.26753C5.85505 0.720034 5.41255 0.285034 4.87255 0.285034H4.40756C3.86756 0.285034 3.42505 0.727534 3.42505 1.26753V11.1075C3.42505 11.655 3.86756 12.09 4.40756 12.09H14.0676C14.6151 12.09 15.0576 11.6475 15.0576 11.1075H15.0351Z" fill="white"/>
</svg>
