<svg width="14" height="18" viewBox="0 0 14 18" fill="none" xmlns="http://www.w3.org/2000/svg">
<path d="M11.0575 5.12753C12.985 6.49253 14.1025 9.02003 13.255 11.315C12.4525 13.475 10.225 14.825 7.97499 14.8925C9.70749 14.2775 10.2775 12.0275 9.04749 10.6625C7.83999 9.32753 5.59749 9.62003 4.77249 11.2175C3.84249 13.0175 5.31999 14.81 6.93249 15.53C8.76249 16.3475 10.8775 15.7475 12.355 14.48C9.81999 17.9525 4.69749 18.5675 1.88499 15.1025C-0.0275083 12.7475 -0.0725082 9.28253 1.66749 6.79253C1.24749 8.14253 1.57749 9.51503 2.70249 10.2575C1.57749 8.00753 2.33499 6.30503 3.85749 4.79753C4.59249 4.07003 5.52999 3.79253 6.29499 3.15503C7.14249 2.45753 7.24749 1.30253 7.08999 0.282532C8.43999 0.980032 9.28749 2.45753 9.15999 3.98003C7.00749 3.98753 6.23499 6.95753 8.10999 8.01503C9.93999 9.05003 12.0625 6.98753 11.0725 5.12753H11.0575Z" fill="white"/>
</svg>
