<svg width="17" height="14" viewBox="0 0 17 14" fill="none" xmlns="http://www.w3.org/2000/svg">
<path d="M14.375 9.265C13.5875 10.6 12.5975 11.1775 11.33 11.32C11.0225 11.3575 10.7075 11.3275 10.3925 11.365C10.1675 11.395 10.0175 11.635 10.2125 11.74C11.1275 12.2425 10.295 12.475 10.055 12.6775C8.18001 14.1925 5.44251 14.2975 3.41001 12.97C1.32501 11.605 0.357513 9.07 1.01001 6.6775C1.65501 4.3075 3.71751 2.575 6.15501 2.47C7.70751 2.4025 9.27501 2.41 10.835 2.455C12.845 2.5075 14.6825 2.125 16.16 0.497498C16.43 0.947498 16.3175 1.345 16.25 1.7125C15.7625 4.435 13.445 6.3925 10.6625 6.46C10.1 6.475 9.53751 6.46 8.97501 6.475C8.78751 6.475 8.57001 6.52 8.57001 6.76C8.57001 6.9475 8.75001 7 8.91501 6.9925C10.97 6.8875 13.1225 7.45 14.9975 6.1075C15.1325 6.01 15.2975 5.815 15.4775 6.0175C15.62 6.1825 15.515 6.37 15.425 6.535C14.5925 8.02 13.3475 8.92 11.63 9.0775C11.135 9.1225 10.6325 9.0775 10.13 9.1075C9.83751 9.1225 9.35001 8.9725 9.33501 9.3625C9.32001 9.805 9.81501 9.625 10.085 9.625C11.4425 9.61 12.815 9.7975 14.375 9.28V9.265Z" fill="#FDFDFE"/>
</svg>
