<svg width="15" height="16" viewBox="0 0 15 16" fill="none" xmlns="http://www.w3.org/2000/svg">
<path d="M14.795 7.81245C14.795 1.57995 7.06247 -1.71255 2.56997 2.61495C-1.96003 6.97995 1.15997 14.84 7.43747 15.0275C10.7225 15.0275 12.23 14.75 14.5475 14.1575C13.8425 13.865 13.19 13.46 12.6275 12.965C13.9625 11.6525 14.795 9.82995 14.795 7.81245V7.81245ZM4.66997 8.37495C3.70997 8.37495 2.93747 7.60245 2.93747 6.64245C2.93747 5.85495 3.46247 5.19495 4.17497 4.97745C4.15997 5.05995 4.15247 5.14245 4.15247 5.23245C4.15247 6.19245 4.92497 6.96495 5.88497 6.96495C6.05747 6.96495 6.22247 6.94245 6.37997 6.88995C6.25247 7.72995 5.53997 8.36745 4.66997 8.36745V8.37495ZM10.46 8.37495C9.58997 8.37495 8.86997 7.72995 8.74997 6.89745C8.90747 6.94245 9.07248 6.97245 9.24498 6.97245C10.205 6.97245 10.9775 6.19995 10.9775 5.23995C10.9775 5.14995 10.97 5.06745 10.955 4.98495C11.675 5.19495 12.1925 5.86245 12.1925 6.64995C12.1925 7.60995 11.4125 8.38245 10.46 8.38245V8.37495Z" fill="white"/>
</svg>
