<svg width="14" height="16" viewBox="0 0 14 16" fill="none" xmlns="http://www.w3.org/2000/svg">
<path d="M13.705 1.08248C13.195 0.632475 11.17 1.12748 10.5925 1.19498C8.68747 1.42748 6.76747 1.79497 4.95997 2.43247C3.07747 3.09997 1.53997 4.05998 0.65497 5.91998C-0.45503 8.25998 -0.125025 11.11 1.47997 13.1425C1.89247 12.7075 2.47747 12.265 2.79997 11.7625C3.23497 11.095 2.99497 9.75248 3.02497 8.91998C3.03247 8.67248 3.12247 5.24497 3.29497 5.22997C3.49747 5.21497 4.01498 8.58247 4.20248 9.83497C4.23248 10.0225 4.45747 10.09 4.58497 9.96248C5.03497 9.51998 5.47748 9.08497 5.92748 8.64247C6.23498 8.34247 6.38498 8.22997 6.47498 7.83997C6.56498 7.44247 6.49748 6.92498 6.51998 6.51248C6.53498 6.26498 6.71498 3.18247 6.93248 3.16747C7.13498 3.15247 7.61498 5.57498 7.78748 6.48248C7.81748 6.62498 7.98247 6.67747 8.08747 6.57997C8.99497 5.69497 11.83 2.93497 11.9725 3.06247C12.115 3.18997 9.75248 6.35497 8.99498 7.37497C8.90498 7.48747 8.98747 7.65248 9.12997 7.65998C10.0525 7.71248 12.5125 7.86997 12.52 8.07247C12.535 8.28997 9.48247 8.87498 9.25747 8.91998C8.87497 8.99498 8.46997 9.01748 8.08747 9.12248C7.60747 9.24998 7.53248 9.36247 7.22498 9.78247C6.84998 10.285 6.47497 10.7875 6.09247 11.29C5.97997 11.44 6.08497 11.65 6.27247 11.6575C7.53997 11.68 10.945 11.755 10.9525 11.9575C10.96 12.1225 7.57747 12.6625 7.33747 12.7075C6.56497 12.8425 5.25248 12.79 4.63748 13.195C4.16498 13.51 3.71497 14.35 3.35497 14.8C5.50747 16.0825 8.26748 16.0825 10.4125 14.8C12.2125 13.7275 13.03 12.0925 13.4725 10.1125C13.9 8.20748 14.0125 6.21997 13.9975 4.27747C13.9975 3.56497 13.9675 2.85248 13.9 2.13998C13.8775 1.89998 13.9 1.26997 13.705 1.08997V1.08248Z" fill="white"/>
</svg>
