<svg width="18" height="16" viewBox="0 0 18 16" fill="none" xmlns="http://www.w3.org/2000/svg">
<path d="M8.27251 8.19253L4.13251 10.525L0.142517 8.14003L4.08751 5.86003L8.27251 8.19253ZM13.8675 5.76253L9.72752 8.09503L13.9125 10.4275L17.8575 8.14753L13.8675 5.76253ZM8.52751 2.74753L4.58252 0.467529L4.50751 5.11753L8.59502 7.54003L8.52002 2.74753H8.52751ZM13.5 11.17L9.41252 8.74753L9.48751 13.54L13.4325 15.82L13.5075 11.17H13.5ZM13.44 5.03503V0.48253L9.37502 2.74753L9.32251 7.49503L13.44 5.03503V5.03503ZM8.63251 13.555L8.68502 8.80753L4.56751 11.2675V15.82L8.63251 13.555V13.555Z" fill="white"/>
</svg>
