<?xml version="1.0" encoding="utf-8"?>
<!-- Generator: Adobe Illustrator 26.2.1, SVG Export Plug-In . SVG Version: 6.00 Build 0)  -->
<svg version="1.1" id="a" xmlns="http://www.w3.org/2000/svg" xmlns:xlink="http://www.w3.org/1999/xlink" x="0px" y="0px"
	 viewBox="0 0 32 21.3" style="enable-background:new 0 0 32 21.3;" xml:space="preserve">
<style type="text/css">
	.st0{fill:#CE406B;}
</style>
<path class="st0" d="M11,21.3l-0.3-5l-9.3,1.7l5.1-5.1L0,10.4l9.6-2.6L9.5,2.8l6.1,1.8L22.2,0l0.6,4.5l8.1-2.3L26.6,8l5.4,2.4
	l-8.5,2.9l0.3,4.5l-6.4-1.6L11,21.3L11,21.3z M12.4,14.2l0.2,3.6l4.4-3.5l4.9,1.2l-0.2-3.5l5.5-1.9l-3.4-1.5l2.5-3.4l-5.1,1.5
	l-0.5-3.6L16,6.5l-4.7-1.3l0,4l-5.6,1.5l3.9,1.5l-3.1,3.1L12.4,14.2L12.4,14.2z"/>
</svg>