<svg width="16" height="16" viewBox="0 0 16 16" fill="none" xmlns="http://www.w3.org/2000/svg">
<path d="M15.5 7.20252C15.5 3.75252 12.14 0.955017 8 0.955017C3.86 0.955017 0.5 3.75252 0.5 7.20252C0.5 9.08502 1.4975 10.7725 3.08 11.9125C2.8775 12.28 2.75 12.7225 2.75 13.2025C2.75 14.4475 3.56 15.4525 4.565 15.4525C5.345 15.4525 6.0125 14.8375 6.26 13.9825C6.485 14.8375 7.175 15.4525 8 15.4525C8.825 15.4525 9.515 14.83 9.74 13.9825C9.995 14.8375 10.6625 15.4525 11.435 15.4525C12.44 15.4525 13.25 14.4475 13.25 13.2025C13.25 12.7225 13.13 12.28 12.92 11.9125C14.5025 10.765 15.5 9.07752 15.5 7.20252ZM8 11.0125C5.255 11.0125 2.9375 9.26502 2.9375 7.20252C2.9375 5.14002 5.255 3.39252 8 3.39252C10.745 3.39252 13.0625 5.14002 13.0625 7.20252C13.0625 9.26502 10.745 11.0125 8 11.0125Z" fill="white"/>
</svg>
