<svg width="14" height="14" viewBox="0 0 14 14" fill="none" xmlns="http://www.w3.org/2000/svg">
<path d="M10.855 12.91C7.56247 14.6725 3.07747 13.855 1.12747 10.51C-0.650034 7.45001 0.317465 3.15251 3.29497 1.21751C6.24997 -0.702492 10.63 0.15251 12.6925 2.99501C15.1 6.31001 13.2925 11.275 9.05497 11.665C7.26997 11.83 5.29746 11.005 4.44246 9.36251C3.66996 7.88501 4.04497 5.72501 5.44747 4.75001C6.84997 3.77501 9.12247 3.95501 9.83497 5.68751C10.135 6.42251 10.0225 7.43501 9.45246 8.02001C8.97246 8.50751 7.83997 8.68751 7.32247 8.13251C7.12747 7.92251 6.93247 7.54001 7.29247 7.39751C7.43497 7.34501 7.79497 7.59251 7.96747 7.58501C8.75497 7.57751 9.00246 6.58001 8.59746 6.00251C8.10996 5.29751 7.02247 5.35001 6.40747 5.83001C5.64997 6.41501 5.55996 7.38251 5.88996 8.23001C6.51996 9.86501 8.56747 10.2325 9.96997 9.30251C11.3275 8.39501 11.53 6.21251 10.8475 4.83251C9.90246 2.93501 7.31497 2.38001 5.44747 3.05501C3.59497 3.72251 2.49247 5.54501 2.45497 7.47251C2.41747 9.19751 3.24997 10.9 4.64497 11.92C6.46747 13.255 8.73247 12.925 10.8625 12.925L10.855 12.91Z" fill="white"/>
</svg>
