<?xml version="1.0" encoding="utf-8"?>
<!-- Generator: Adobe Illustrator 26.2.1, SVG Export Plug-In . SVG Version: 6.00 Build 0)  -->
<svg version="1.1" id="a" xmlns="http://www.w3.org/2000/svg" xmlns:xlink="http://www.w3.org/1999/xlink" x="0px" y="0px"
	 viewBox="0 0 32 21.2" style="enable-background:new 0 0 32 21.2;" xml:space="preserve">
<style type="text/css">
	.st0{fill:#096CC3;}
</style>
<path class="st0" d="M31.7,5.5c-0.8-2.6-3.3-4.4-7-5.2C21.3-0.4,17.1,0,13,1.3C8.9,2.6,5.3,4.8,2.9,7.4c-2.5,2.8-3.5,5.7-2.6,8.3
	c1.2,3.6,5.3,5.6,10.7,5.6c2.5,0,5.2-0.4,8-1.3C27.8,17.1,33.4,10.8,31.7,5.5L31.7,5.5z M18.4,18.1c-7.6,2.4-15,1-16.4-3
	c-0.6-1.9,0.2-4.2,2.2-6.4c2.2-2.4,5.5-4.4,9.3-5.6c2.5-0.8,5-1.2,7.4-1.2c1.2,0,2.4,0.1,3.4,0.3c3,0.6,4.9,2,5.6,3.9
	C31.2,10.2,26,15.7,18.4,18.1L18.4,18.1z"/>
<path class="st0" d="M14.1,4.6C11.6,5.4,9.5,6.7,8,8.3c-1.6,1.7-2.1,3.6-1.6,5.3c0.7,2.3,3.4,3.6,6.8,3.6c1.5,0,3.1-0.2,4.7-0.8
	c5.4-1.7,8.8-5.7,7.7-9S19.5,2.9,14.1,4.6L14.1,4.6z M17.4,14.7c-4.2,1.4-8.4,0.6-9.2-1.6c-0.3-1,0.1-2.2,1.2-3.5
	c1.2-1.4,3.1-2.5,5.3-3.2c1.5-0.5,2.9-0.7,4.2-0.7c2.5,0,4.5,0.8,5,2.3C24.6,10.3,21.6,13.3,17.4,14.7L17.4,14.7z"/>
<path class="st0" d="M20,9.2c-0.5-1.5-2.6-2.2-4.8-1.4c-1,0.3-1.8,0.9-2.4,1.5c-0.7,0.8-0.9,1.7-0.7,2.5s1,1.4,2,1.6
	c0.3,0.1,0.7,0.1,1,0.1c0.6,0,1.2-0.1,1.8-0.3C19.1,12.5,20.5,10.7,20,9.2L20,9.2z M16.3,11.4c-0.7,0.2-1.3,0.3-1.9,0.1
	c-0.3-0.1-0.6-0.2-0.6-0.4s0.1-0.4,0.3-0.7c0.4-0.4,0.9-0.8,1.6-1c0.5-0.1,0.9-0.2,1.2-0.2c0.7,0,1.2,0.2,1.2,0.4
	C18.3,10.1,17.7,11,16.3,11.4L16.3,11.4z"/>
</svg>
