<?xml version="1.0" encoding="utf-8"?>
<!-- Generator: Adobe Illustrator 26.2.1, SVG Export Plug-In . SVG Version: 6.00 Build 0)  -->
<svg version="1.1" id="a" xmlns="http://www.w3.org/2000/svg" xmlns:xlink="http://www.w3.org/1999/xlink" x="0px" y="0px" viewBox="0 0 32 23.2" style="enable-background:new 0 0 32 23.2;" xml:space="preserve">
<style type="text/css">
	.st0{fill:#909AA2;}
</style>
<path class="st0" d="M32,8C31.7,4.5,29.5,0.3,21,0C14.5-0.2,7.8,2.4,3.6,6.8C1.1,9.5-0.2,12.6,0,15.5c0.4,4.3,5.8,7.7,10.1,7.7
	c7.2,0,14.5-2.9,18.6-7.5C31.1,13.2,32.2,10.6,32,8L32,8z M1.9,15.3c-0.2-2.4,0.9-5,3.1-7.3C8.1,4.7,13.1,2.5,18.2,2
	c-3,2.4-3.7,4.4-3.7,5.9c0,2.9,2.5,4.2,2.5,7.1c0,2.8-0.5,4.7-2.9,6c-1.3,0.2-2.6,0.3-3.8,0.3C6.7,21.3,2.2,18.6,1.9,15.3L1.9,15.3z
	"/>
</svg>
