<svg width="12" height="16" viewBox="0 0 12 16" fill="none" xmlns="http://www.w3.org/2000/svg">
<path d="M11.34 10.25C11.34 13.1975 8.94753 15.59 6.00003 15.59C3.05253 15.59 0.660034 13.1975 0.660034 10.25C0.660034 7.30254 4.97253 0.785034 6.00003 0.785034C7.02753 0.785034 11.34 7.30254 11.34 10.25ZM6.65253 12.035C5.10003 12.035 3.84003 10.775 3.84003 9.22253C3.84003 8.84753 3.91503 8.48754 4.05003 8.15754C3.18753 8.72754 2.62503 9.70254 2.62503 10.8125C2.62503 12.575 4.05003 14 5.81253 14C7.57503 14 9.00003 12.575 9.00003 10.8125C9.00003 10.7975 9.00003 10.79 9.00003 10.775C8.49753 11.5325 7.63503 12.035 6.66003 12.035H6.65253Z" fill="white"/>
</svg>
